# xmcd
#
# Track frame offsets:
#	180
#	3749
#	7941
#	32434
#	60794
#	89754
#	106860
#	135007
#	160522
#	193703
#	220140
#	229775
#	260489
#	271493
#
# Disc length: 4216 seconds
#
# Revision: 0
# Processed by: cddbd v1.5.2PL0 Copyright (c) Steve Scherf et al.
# Submitted via: FairStars CD Ripper 1.70
#
DISCID=a710760e
DTITLE=Blue Monday Orchestra - 9:00 Sharp!
DYEAR=1997
DGENRE=Blues
TTITLE0=Introductions
TTITLE1=9:00 Sharp-Team Drink
TTITLE2=You Don't Have To Go
TTITLE3=Snap Your Fingers
TTITLE4=Chickenhawk Song
TTITLE5=Chicken Song
TTITLE6=Folsum Prison Blues
TTITLE7=Sail On
TTITLE8=Jabber-Woke Up This Mornin
TTITLE9=Big Boss Man
TTITLE10=Musician Jokes - Toast
TTITLE11=Ain't Got Nothin But The Blues
TTITLE12=Seven Beers
TTITLE13=Got My Mojo Workin
EXTD=
EXTT0=
EXTT1=
EXTT2=
EXTT3=
EXTT4=
EXTT5=
EXTT6=
EXTT7=
EXTT8=
EXTT9=
EXTT10=
EXTT11=
EXTT12=
EXTT13=
PLAYORDER=
